<svg xmlns="http://www.w3.org/2000/svg" width="367" height="103" viewBox="0 0 367 103" version="1.1"><path d="" stroke="none" fill="#080404" fill-rule="evenodd"/><path d="M 44.645 2.849 C 42.206 5.395, 41.398 5.649, 37.059 5.232 C 33.070 4.848, 31.273 5.271, 27.003 7.595 C 24.143 9.151, 19.792 12.661, 17.335 15.395 C 14.877 18.128, 11.094 23.545, 8.928 27.432 C 6.762 31.320, 3.867 38.011, 2.495 42.302 C 0.894 47.306, -0 52.426, -0 56.584 C -0 60.148, 0.613 64.512, 1.362 66.282 C 2.111 68.052, 3.651 70.326, 4.784 71.335 C 5.918 72.344, 8.684 73.416, 10.931 73.718 C 14.191 74.155, 16.286 73.641, 21.287 71.179 C 24.735 69.482, 30.415 65.506, 33.910 62.343 C 38.588 58.110, 40.075 57.188, 39.549 58.846 C 39.092 60.284, 39.414 61.984, 40.440 63.549 C 41.543 65.232, 42.969 66, 44.990 66 C 47.027 66, 49.023 64.910, 51.472 62.462 C 53.418 60.516, 56.357 56.255, 58.004 52.993 C 60.060 48.919, 61.445 47.233, 62.426 47.610 C 63.212 47.911, 65.915 47.246, 68.434 46.132 L 73.013 44.107 71.882 46.220 C 71.260 47.383, 68.782 50.752, 66.375 53.706 C 63.815 56.849, 62 60.112, 62 61.570 C 62 62.941, 62.692 64.328, 63.537 64.653 C 64.383 64.977, 65.908 64.488, 66.928 63.565 C 67.947 62.643, 70.183 59.258, 71.897 56.042 C 73.611 52.827, 76.637 48.770, 78.623 47.026 C 80.608 45.283, 83.750 43.133, 85.604 42.249 C 87.458 41.365, 89.285 40.951, 89.663 41.330 C 90.041 41.708, 87.987 46.773, 85.098 52.585 C 82.209 58.398, 80.088 63.786, 80.385 64.560 C 80.681 65.333, 81.504 65.735, 82.212 65.451 C 82.920 65.168, 85.271 62.469, 87.436 59.452 C 89.601 56.436, 94.513 50.938, 98.351 47.234 C 102.305 43.419, 105.506 41.027, 105.737 41.715 C 105.960 42.384, 104.507 46.555, 102.507 50.984 C 100.465 55.507, 99.009 60.191, 99.185 61.668 C 99.358 63.115, 100.281 64.787, 101.235 65.385 C 102.560 66.214, 103.787 66.031, 106.427 64.609 C 108.328 63.585, 112.475 60.442, 115.641 57.624 C 119.206 54.450, 121.105 53.261, 120.629 54.500 C 120.206 55.600, 119.621 57.683, 119.329 59.128 C 119.038 60.573, 119.325 62.738, 119.967 63.939 C 120.610 65.139, 121.667 65.944, 122.318 65.728 C 122.968 65.511, 123.528 63.437, 123.563 61.119 C 123.608 58.098, 125.098 54.017, 128.829 46.703 C 131.691 41.091, 134.025 36.163, 134.016 35.750 C 134.007 35.337, 133.367 35, 132.594 35 C 131.821 35, 127.658 38.896, 123.344 43.658 C 119.030 48.420, 112.819 54.553, 109.543 57.287 C 106.152 60.116, 103.419 61.757, 103.198 61.095 C 102.985 60.455, 104.428 56.525, 106.405 52.362 C 108.382 48.199, 110 43.273, 110 41.415 C 110 38.682, 109.541 37.923, 107.593 37.434 C 106.269 37.102, 104.132 37.371, 102.843 38.033 C 101.554 38.695, 98.804 40.858, 96.731 42.840 L 92.961 46.444 93.573 43.386 C 94.003 41.236, 93.690 39.833, 92.521 38.664 C 91.606 37.749, 89.877 37.005, 88.679 37.012 C 87.480 37.019, 84.614 38.102, 82.310 39.420 L 78.119 41.816 79.067 39.324 C 79.588 37.954, 79.760 36.420, 79.448 35.916 C 79.137 35.412, 78.312 35, 77.615 35 C 76.919 35, 75.258 36.168, 73.924 37.595 C 72.591 39.022, 70.285 40.822, 68.800 41.595 C 67.314 42.368, 65.177 43, 64.050 43 C 62.578 43, 62 42.352, 62 40.700 C 62 39.435, 61.460 37.860, 60.800 37.200 C 60.140 36.540, 58.285 36, 56.678 36 C 54.239 36, 51.416 38.378, 39.628 50.363 C 29.199 60.966, 24.074 65.416, 20.054 67.363 C 17.058 68.813, 13.596 70, 12.359 70 C 11.123 70, 8.883 68.943, 7.380 67.651 C 5.107 65.696, 4.577 64.302, 4.218 59.341 C 3.955 55.704, 4.426 50.869, 5.425 46.940 C 6.327 43.398, 8.856 36.870, 11.046 32.433 C 13.237 27.997, 17.324 21.792, 20.128 18.646 C 22.932 15.499, 27.009 12.016, 29.187 10.905 C 31.365 9.793, 34.430 9.023, 35.998 9.192 L 38.849 9.500 34.302 15.500 C 31.801 18.800, 28.464 23.750, 26.887 26.500 C 25.309 29.250, 24.015 32.907, 24.009 34.628 C 24.004 36.348, 24.675 38.315, 25.499 38.999 C 26.696 39.992, 27.621 39.985, 30.085 38.965 C 31.783 38.261, 34.909 35.386, 37.031 32.575 C 39.154 29.764, 41.805 25.447, 42.923 22.982 C 44.056 20.484, 44.966 16.345, 44.978 13.632 C 44.996 9.659, 45.556 8.131, 48.022 5.322 C 49.684 3.429, 50.783 1.457, 50.463 0.940 C 50.143 0.423, 49.318 0, 48.628 0 C 47.938 0, 46.146 1.282, 44.645 2.849 M 34.234 22.816 C 30.805 27.939, 28.018 33.114, 28.041 34.316 C 28.077 36.209, 28.607 35.919, 32.017 32.148 C 34.182 29.755, 37.127 25.396, 38.562 22.463 C 39.997 19.529, 41.013 16.313, 40.820 15.315 C 40.577 14.063, 38.533 16.392, 34.234 22.816 M 138.381 20.792 C 137.775 21.181, 136.541 22.940, 135.640 24.700 C 134.738 26.461, 134 28.598, 134 29.450 C 134 30.303, 134.681 31, 135.513 31 C 136.345 31, 138.010 28.975, 139.213 26.500 C 140.606 23.631, 141.052 21.652, 140.441 21.041 C 139.914 20.514, 138.987 20.402, 138.381 20.792 M 93.235 24.004 C 90.889 24.497, 88.526 25.175, 87.985 25.509 C 87.443 25.844, 87 26.799, 87 27.631 C 87 28.897, 87.938 29.016, 92.750 28.359 C 95.912 27.928, 99.625 27.575, 101 27.575 C 102.375 27.575, 106.088 27.928, 109.250 28.359 C 114.177 29.032, 115 28.915, 115 27.547 C 115 26.669, 113.880 25.525, 112.511 25.004 C 111.142 24.484, 107.205 23.844, 103.761 23.582 C 100.318 23.321, 95.581 23.510, 93.235 24.004 M 244.619 29.034 C 243.035 29.509, 240.629 30.933, 239.272 32.198 C 237.915 33.464, 235.915 36.236, 234.827 38.358 C 233.252 41.430, 232.916 43.760, 233.175 49.805 L 233.500 57.395 228.631 61.946 C 225.953 64.449, 223.378 67.506, 222.909 68.740 C 222.440 69.973, 222.331 71.699, 222.667 72.575 C 223.003 73.451, 224.228 74.526, 225.389 74.963 C 226.720 75.465, 228.544 75.226, 230.326 74.315 C 232.091 73.412, 234.058 70.924, 235.566 67.685 C 236.894 64.833, 237.985 61.776, 237.990 60.892 C 237.996 60.007, 240.363 57.718, 243.250 55.804 C 246.137 53.891, 249.444 51.823, 250.599 51.208 C 252.637 50.124, 252.667 50.207, 251.631 54.088 C 250.874 56.924, 250.875 58.581, 251.634 59.793 C 252.223 60.732, 253.625 61.638, 254.750 61.806 C 256.052 62.001, 258.083 60.786, 260.342 58.460 C 262.292 56.452, 264.877 52.423, 266.085 49.507 C 268.108 44.628, 268.537 44.213, 271.472 44.296 L 274.661 44.387 272.830 49.204 C 271.824 51.854, 271 55.277, 271 56.811 C 271 58.345, 271.540 60.140, 272.200 60.800 C 272.860 61.460, 274.613 62, 276.096 62 C 277.942 62, 279.793 60.860, 281.963 58.389 C 283.707 56.403, 286.068 52.856, 287.209 50.507 C 289.213 46.381, 289.441 46.237, 293.892 46.286 C 296.426 46.313, 299.508 46.007, 300.739 45.604 C 302.733 44.952, 302.486 45.704, 298.489 52.465 C 296.020 56.641, 294 60.446, 294 60.922 C 294 61.397, 294.612 62.021, 295.360 62.308 C 296.159 62.614, 299.765 59.728, 304.110 55.304 C 308.174 51.166, 313.255 46.479, 315.400 44.890 C 317.545 43.300, 319.663 42, 320.108 42 C 320.552 42, 319.585 44.813, 317.958 48.250 C 316.332 51.688, 315.001 55.412, 315.001 56.527 C 315 57.643, 315.701 59.555, 316.557 60.777 C 317.571 62.225, 319.148 63, 321.082 63 C 322.714 63, 327.301 61.364, 331.275 59.365 C 335.249 57.366, 342.325 53.605, 347 51.007 C 351.675 48.409, 358.087 45.237, 361.250 43.958 C 364.413 42.679, 367 41.066, 367 40.375 C 367 39.684, 366.583 38.860, 366.073 38.545 C 365.563 38.230, 362.750 38.911, 359.823 40.059 C 356.895 41.207, 347.975 45.687, 340 50.016 C 332.025 54.344, 324.267 58.184, 322.759 58.549 C 320.755 59.034, 319.857 58.790, 319.415 57.640 C 319.083 56.775, 320.247 52.954, 322.001 49.148 C 323.755 45.342, 325.032 41.390, 324.837 40.364 C 324.594 39.082, 323.459 38.401, 321.203 38.184 C 318.712 37.944, 316.699 38.747, 312.836 41.523 L 307.748 45.178 311.124 40.563 C 312.981 38.025, 314.940 35.297, 315.478 34.502 C 316.125 33.543, 316.094 32.694, 315.386 31.986 C 314.628 31.228, 312.900 32.089, 309.438 34.949 C 306.755 37.167, 303.128 39.660, 301.379 40.491 C 299.629 41.321, 296.631 42, 294.716 42 C 292.138 42, 291.104 41.507, 290.738 40.104 C 290.465 39.062, 288.669 37.462, 286.746 36.550 C 283.337 34.932, 283.156 34.954, 279.485 37.445 C 277.415 38.850, 274.470 40, 272.941 40 C 271.413 40, 268.804 39.220, 267.143 38.267 C 264.227 36.594, 264.045 36.606, 261.812 38.631 C 260.540 39.783, 254.438 43.914, 248.250 47.810 L 237 54.893 237.004 48.697 C 237.006 44.320, 237.580 41.562, 238.956 39.304 C 240.028 37.547, 242.044 35.362, 243.438 34.449 C 244.831 33.536, 247.853 32.724, 250.153 32.645 C 252.453 32.565, 254.506 31.989, 254.713 31.364 C 254.921 30.739, 253.653 29.726, 251.896 29.114 C 250.139 28.501, 248.431 28.039, 248.101 28.086 C 247.770 28.133, 246.204 28.560, 244.619 29.034 M 185.252 32.793 C 183.466 33.759, 176.266 40.205, 169.252 47.118 C 162.238 54.031, 155.488 60.223, 154.250 60.878 C 152.476 61.818, 152 61.804, 152 60.810 C 152 60.117, 153.197 56.500, 154.659 52.772 C 156.924 46.999, 157.142 45.606, 156.127 43.379 C 155.097 41.118, 154.507 40.849, 151.783 41.393 C 150.050 41.740, 147.763 42.806, 146.702 43.762 C 144.801 45.475, 144.799 45.441, 146.535 41.500 C 147.504 39.300, 148.343 36.375, 148.399 35 C 148.459 33.508, 147.951 32.500, 147.138 32.500 C 146.377 32.500, 143.902 36.761, 141.521 42.169 C 139.181 47.487, 135.674 53.787, 133.728 56.169 C 131.782 58.551, 130.034 61.400, 129.845 62.500 C 129.601 63.913, 130.120 64.588, 131.613 64.802 C 133.205 65.029, 134.512 63.877, 136.918 60.128 C 138.674 57.392, 142.046 53.369, 144.411 51.189 C 146.776 49.009, 149.676 46.708, 150.856 46.077 C 152.035 45.446, 153 45.179, 153 45.485 C 153 45.790, 151.875 48.808, 150.500 52.192 C 149.125 55.576, 148 59.527, 148 60.972 C 148 62.418, 148.540 64.140, 149.200 64.800 C 149.860 65.460, 151.176 66, 152.123 66 C 153.071 66, 155.910 64.425, 158.432 62.500 C 160.954 60.575, 163.160 59, 163.335 59 C 163.510 59, 163.466 60.277, 163.237 61.839 C 162.977 63.613, 163.443 65.300, 164.482 66.339 C 165.395 67.252, 167.057 68, 168.175 68 C 169.765 68, 168.605 69.704, 162.854 75.818 C 158.809 80.118, 154.262 86.165, 152.750 89.255 C 151.238 92.346, 150 96.162, 150 97.737 C 150 99.312, 150.540 101.140, 151.200 101.800 C 151.860 102.460, 153.512 103, 154.871 103 C 156.483 103, 158.795 101.484, 161.519 98.642 C 163.815 96.245, 167.947 90.508, 170.701 85.892 C 173.455 81.276, 177.223 74.696, 179.075 71.269 C 182.179 65.523, 182.911 64.846, 188.470 62.583 C 191.787 61.234, 195.850 59.725, 197.500 59.232 C 199.150 58.738, 200.645 57.584, 200.823 56.667 C 201.042 55.538, 200.470 55, 199.048 55 C 197.894 55, 194.464 55.874, 191.426 56.941 L 185.902 58.883 186.579 56.691 C 186.952 55.486, 188.099 52.830, 189.128 50.790 C 190.158 48.749, 191 46.387, 191 45.540 C 191 44.693, 190.507 44, 189.904 44 C 189.301 44, 184.463 48.506, 179.154 54.013 C 173.844 59.520, 168.938 64.020, 168.250 64.013 C 167.563 64.006, 167.004 63.438, 167.010 62.750 C 167.015 62.063, 168.076 59.250, 169.367 56.500 C 170.658 53.750, 173.466 49.414, 175.607 46.865 C 177.748 44.316, 180.989 40.991, 182.808 39.477 C 184.628 37.963, 187.778 36.153, 189.808 35.455 C 191.839 34.757, 193.500 33.582, 193.500 32.843 C 193.500 32.104, 192.375 31.396, 191 31.269 C 189.625 31.141, 187.038 31.827, 185.252 32.793 M 282.035 41.193 C 280.911 42.399, 279.102 45.223, 278.016 47.467 C 276.929 49.712, 275.750 53, 275.395 54.774 C 275 56.748, 275.152 58, 275.786 58 C 276.356 58, 278.057 56.538, 279.566 54.750 C 281.075 52.962, 283.108 49.723, 284.083 47.551 C 285.265 44.922, 285.559 43.044, 284.964 41.933 C 284.472 41.014, 284.355 39.979, 284.702 39.631 C 285.049 39.284, 285.051 39, 284.706 39 C 284.360 39, 283.158 39.987, 282.035 41.193 M 50.573 44.494 C 49.107 46.415, 47.039 49.903, 45.976 52.244 C 44.913 54.585, 44.034 57.737, 44.022 59.250 C 44.010 60.763, 44.389 62, 44.865 62 C 45.341 62, 46.885 61.092, 48.296 59.982 C 49.708 58.871, 52.221 55.244, 53.882 51.920 C 56.422 46.836, 56.725 45.491, 55.790 43.439 C 55.179 42.098, 54.355 41, 53.958 41 C 53.562 41, 52.038 42.572, 50.573 44.494 M 261.240 44.692 C 260.151 46.237, 258.271 49.456, 257.061 51.847 C 255.851 54.238, 255.157 56.488, 255.520 56.847 C 255.883 57.206, 257.265 56.150, 258.592 54.500 C 259.919 52.850, 261.743 49.577, 262.646 47.228 C 263.550 44.878, 264.048 42.715, 263.753 42.420 C 263.459 42.126, 262.328 43.148, 261.240 44.692 M 176.924 62.631 C 174.612 65.141, 174.603 65.200, 176.731 63.903 C 177.958 63.155, 179.181 61.971, 179.449 61.272 C 179.718 60.572, 179.805 60, 179.643 60 C 179.481 60, 178.258 61.184, 176.924 62.631 M 229.073 66.635 C 227.933 68.084, 227 69.697, 227 70.218 C 227 70.740, 227.558 70.981, 228.241 70.753 C 228.923 70.526, 230.315 68.913, 231.333 67.170 C 232.351 65.426, 232.725 64, 232.165 64 C 231.604 64, 230.212 65.186, 229.073 66.635 M 171.405 67.155 C 170.962 67.870, 171.130 68.038, 171.845 67.595 C 172.480 67.203, 173 66.684, 173 66.441 C 173 66.198, 172.802 66, 172.559 66 C 172.316 66, 171.797 66.520, 171.405 67.155 M 166.637 77.760 C 162.743 81.667, 158.675 86.984, 156.960 90.410 C 155.332 93.660, 154 96.923, 154 97.660 C 154 98.397, 154.415 99, 154.922 99 C 155.429 99, 157.495 97.088, 159.513 94.750 C 161.530 92.412, 165.660 86.307, 168.689 81.182 C 171.718 76.057, 174.007 71.674, 173.775 71.442 C 173.544 71.210, 170.331 74.054, 166.637 77.760" stroke="none" fill="#040404" fill-rule="evenodd"/></svg>