<svg width="512" height="512" viewBox="0 0 512 512" style="color:#fa541c" xmlns="http://www.w3.org/2000/svg" class="h-full w-full"><rect width="512" height="512" x="0" y="0" rx="28" fill="transparent" stroke="transparent" stroke-width="0" stroke-opacity="100%" paint-order="stroke"></rect><svg width="512px" height="512px" viewBox="0 0 24 24" fill="#fa541c" x="0" y="0" role="img" style="display:inline-block;vertical-align:middle" xmlns="http://www.w3.org/2000/svg"><g fill="#fa541c"><path fill="none" stroke="currentColor" stroke-width="2" d="M12 23c6.075 0 11-4.925 11-11S18.075 1 12 1S1 5.925 1 12s4.925 11 11 11Zm0-10a1 1 0 1 0 0-2a1 1 0 0 0 0 2Zm0 2a3 3 0 1 0 0-6a3 3 0 0 0 0 6Zm0 2a5 5 0 1 0 0-10a5 5 0 0 0 0 10Z"/></g></svg></svg>