<!--?xml version="1.0" standalone="no"?-->
              <svg id="sw-js-blob-svg" viewBox="0 0 100 100" xmlns="http://www.w3.org/2000/svg" version="1.1">
                    <defs> 
                        <linearGradient id="sw-gradient" x1="0" x2="1" y1="1" y2="0">
                            <stop id="stop1" stop-color="rgba(48.012, 244.294, 96.35, 1)" offset="0%"></stop>
                            <stop id="stop2" stop-color="rgba(172.662, 255, 184.24, 1)" offset="100%"></stop>
                        </linearGradient>
                    </defs>
                <path fill="url(#sw-gradient)" d="M25.2,-28.7C32.3,-24,37.5,-15.8,39.7,-6.5C42,2.8,41.3,13.1,35.9,19.2C30.6,25.3,20.6,27.3,11.4,29.9C2.3,32.6,-6.1,36.1,-13.6,34.6C-21.2,33,-27.9,26.5,-32.1,18.8C-36.4,11,-38.1,2,-37.5,-7.6C-37,-17.1,-34.2,-27.2,-27.5,-32C-20.9,-36.8,-10.5,-36.2,-0.7,-35.4C9,-34.5,18.1,-33.4,25.2,-28.7Z" width="100%" height="100%" transform="translate(50 50)" stroke-width="0" style="transition: all 0.3s ease 0s;"></path>
              </svg>