<!--?xml version="1.0" standalone="no"?-->
              <svg id="sw-js-blob-svg" viewBox="0 0 100 100" xmlns="http://www.w3.org/2000/svg" version="1.1">
                    <defs> 
                        <linearGradient id="sw-gradient" x1="0" x2="1" y1="1" y2="0">
                            <stop id="stop1" stop-color="rgba(248, 117, 55, 1)" offset="0%"></stop>
                            <stop id="stop2" stop-color="rgba(251, 168, 31, 1)" offset="100%"></stop>
                        </linearGradient>
                    </defs>
                <path fill="url(#sw-gradient)" d="M22.2,-25.7C28,-21.6,31.4,-13.9,31.9,-6.3C32.5,1.3,30.2,8.7,27,17C23.9,25.2,19.8,34.3,13.5,36.4C7.1,38.4,-1.6,33.4,-8.5,28.6C-15.4,23.8,-20.4,19.3,-24.7,13.5C-29,7.7,-32.6,0.7,-32.7,-7.1C-32.9,-14.8,-29.7,-23.2,-23.7,-27.3C-17.7,-31.3,-8.9,-30.9,-0.3,-30.5C8.2,-30.1,16.4,-29.8,22.2,-25.7Z" width="100%" height="100%" transform="translate(50 50)" stroke-width="0" style="transition: all 0.3s ease 0s;"></path>
              </svg>